HIERARCHY
ROOT root
{
	OFFSET 0.000000 0.000642 0.045086
	CHANNELS 6 Xposition Yposition Zposition Xrotation Yrotation Zrotation
	JOINT pelvis
	{
		OFFSET -0.003967 0.043983 0.922426
		CHANNELS 6 Xposition Yposition Zposition Xrotation Yrotation Zrotation
		JOINT thigh_R
		{
			OFFSET -0.108457 -0.044120 -0.114620
			CHANNELS 6 Xposition Yposition Zposition Xrotation Yrotation Zrotation
			JOINT calf_R
			{
				OFFSET -0.031978 -0.023263 -0.393771
				CHANNELS 3 Xrotation Yrotation Zrotation
				JOINT foot_R
				{
					OFFSET -0.052496 0.000902 -0.370102
					CHANNELS 3 Xrotation Yrotation Zrotation
					JOINT toes_R
					{
						OFFSET -0.009320 -0.126011 -0.069821
						CHANNELS 6 Xposition Yposition Zposition Xrotation Yrotation Zrotation
						End Site
						{
							OFFSET -0.004473 -0.046724 -0.003049
						}
					}
				}
				JOINT calf_twist_R
				{
					OFFSET 0.000000 0.000000 0.000000
					CHANNELS 6 Xposition Yposition Zposition Xrotation Yrotation Zrotation
					End Site
					{
						OFFSET -0.038816 0.005263 -0.254563
					}
				}
			}
			JOINT thigh_twist_R
			{
				OFFSET 0.000000 -0.000000 0.000000
				CHANNELS 6 Xposition Yposition Zposition Xrotation Yrotation Zrotation
				End Site
				{
					OFFSET -0.013447 -0.026672 -0.173442
				}
			}
		}
		JOINT thigh_L
		{
			OFFSET 0.116390 -0.044120 -0.114620
			CHANNELS 6 Xposition Yposition Zposition Xrotation Yrotation Zrotation
			JOINT calf_L
			{
				OFFSET 0.031978 -0.023263 -0.393771
				CHANNELS 3 Xrotation Yrotation Zrotation
				JOINT foot_L
				{
					OFFSET 0.052496 0.000902 -0.370102
					CHANNELS 3 Xrotation Yrotation Zrotation
					JOINT toes_L
					{
						OFFSET 0.009320 -0.126011 -0.069821
						CHANNELS 3 Xrotation Yrotation Zrotation
						End Site
						{
							OFFSET 0.004473 -0.046724 -0.003049
						}
					}
				}
				JOINT calf_twist_L
				{
					OFFSET 0.000000 0.000000 0.000000
					CHANNELS 6 Xposition Yposition Zposition Xrotation Yrotation Zrotation
					End Site
					{
						OFFSET 0.038816 0.005263 -0.254563
					}
				}
			}
			JOINT thigh_twist_L
			{
				OFFSET 0.000000 0.000000 0.000000
				CHANNELS 6 Xposition Yposition Zposition Xrotation Yrotation Zrotation
				End Site
				{
					OFFSET 0.013447 -0.026672 -0.173442
				}
			}
		}
		JOINT spine01
		{
			OFFSET -0.000108 -0.000434 0.006186
			CHANNELS 3 Xrotation Yrotation Zrotation
			JOINT spine02
			{
				OFFSET 0.004075 -0.053178 0.066675
				CHANNELS 3 Xrotation Yrotation Zrotation
				JOINT spine03
				{
					OFFSET 0.000000 0.008649 0.117635
					CHANNELS 3 Xrotation Yrotation Zrotation
					JOINT clavicle_L
					{
						OFFSET 0.031960 -0.002455 0.159580
						CHANNELS 6 Xposition Yposition Zposition Xrotation Yrotation Zrotation
						JOINT upperarm_L
						{
							OFFSET 0.106613 -0.013377 -0.022582
							CHANNELS 6 Xposition Yposition Zposition Xrotation Yrotation Zrotation
							JOINT lowerarm_L
							{
								OFFSET 0.233664 0.021966 -0.134813
								CHANNELS 3 Xrotation Yrotation Zrotation
								JOINT hand_L
								{
									OFFSET 0.202817 -0.038212 -0.103702
									CHANNELS 3 Xrotation Yrotation Zrotation
									JOINT thumb01_L
									{
										OFFSET 0.008269 -0.017364 -0.009129
										CHANNELS 6 Xposition Yposition Zposition Xrotation Yrotation Zrotation
										JOINT thumb02_L
										{
											OFFSET 0.007103 -0.025549 -0.027526
											CHANNELS 3 Xrotation Yrotation Zrotation
											JOINT thumb03_L
											{
												OFFSET 0.011035 -0.026258 -0.014218
												CHANNELS 3 Xrotation Yrotation Zrotation
												End Site
												{
													OFFSET 0.008927 -0.014147 -0.017737
												}
											}
										}
									}
									JOINT index00_L
									{
										OFFSET 0.015790 -0.019369 -0.010869
										CHANNELS 6 Xposition Yposition Zposition Xrotation Yrotation Zrotation
										JOINT index01_L
										{
											OFFSET 0.047864 -0.007217 -0.023292
											CHANNELS 3 Xrotation Yrotation Zrotation
											JOINT index02_L
											{
												OFFSET 0.026189 -0.000355 -0.020650
												CHANNELS 3 Xrotation Yrotation Zrotation
												JOINT index03_L
												{
													OFFSET 0.017813 0.001193 -0.013583
													CHANNELS 3 Xrotation Yrotation Zrotation
													End Site
													{
														OFFSET 0.013377 0.001373 -0.016250
													}
												}
											}
										}
									}
									JOINT middle00_L
									{
										OFFSET 0.016276 -0.006169 -0.012863
										CHANNELS 6 Xposition Yposition Zposition Xrotation Yrotation Zrotation
										JOINT middle01_L
										{
											OFFSET 0.049067 -0.003947 -0.017410
											CHANNELS 3 Xrotation Yrotation Zrotation
											JOINT middle02_L
											{
												OFFSET 0.029087 0.000312 -0.026941
												CHANNELS 3 Xrotation Yrotation Zrotation
												JOINT middle03_L
												{
													OFFSET 0.019190 0.000267 -0.015543
													CHANNELS 3 Xrotation Yrotation Zrotation
													End Site
													{
														OFFSET 0.014683 0.000017 -0.017510
													}
												}
											}
										}
									}
									JOINT ring00_L
									{
										OFFSET 0.017106 0.003470 -0.011997
										CHANNELS 6 Xposition Yposition Zposition Xrotation Yrotation Zrotation
										JOINT ring01_L
										{
											OFFSET 0.044984 0.002116 -0.016733
											CHANNELS 3 Xrotation Yrotation Zrotation
											JOINT ring02_L
											{
												OFFSET 0.028856 0.000400 -0.026983
												CHANNELS 3 Xrotation Yrotation Zrotation
												JOINT ring03_L
												{
													OFFSET 0.017620 0.000363 -0.013833
													CHANNELS 3 Xrotation Yrotation Zrotation
													End Site
													{
														OFFSET 0.015507 -0.000807 -0.015547
													}
												}
											}
										}
									}
									JOINT pinky00_L
									{
										OFFSET 0.014366 0.020048 -0.015014
										CHANNELS 6 Xposition Yposition Zposition Xrotation Yrotation Zrotation
										JOINT pinky01_L
										{
											OFFSET 0.041296 0.001442 -0.016227
											CHANNELS 3 Xrotation Yrotation Zrotation
											JOINT pinky02_L
											{
												OFFSET 0.024951 -0.000301 -0.020450
												CHANNELS 3 Xrotation Yrotation Zrotation
												JOINT pinky03_L
												{
													OFFSET 0.013007 -0.001157 -0.010280
													CHANNELS 3 Xrotation Yrotation Zrotation
													End Site
													{
														OFFSET 0.009963 -0.001160 -0.011403
													}
												}
											}
										}
									}
								}
								JOINT lowerarm_twist_L
								{
									OFFSET 0.000000 -0.000000 0.000000
									CHANNELS 6 Xposition Yposition Zposition Xrotation Yrotation Zrotation
									End Site
									{
										OFFSET 0.113147 -0.023106 -0.058600
									}
								}
							}
							JOINT upperarm_twist_L
							{
								OFFSET 0.000000 0.000000 0.000000
								CHANNELS 6 Xposition Yposition Zposition Xrotation Yrotation Zrotation
								End Site
								{
									OFFSET 0.131225 0.003005 -0.082365
								}
							}
						}
					}
					JOINT clavicle_R
					{
						OFFSET -0.031960 -0.002455 0.159580
						CHANNELS 6 Xposition Yposition Zposition Xrotation Yrotation Zrotation
						JOINT upperarm_R
						{
							OFFSET -0.106613 -0.013377 -0.022582
							CHANNELS 6 Xposition Yposition Zposition Xrotation Yrotation Zrotation
							JOINT lowerarm_R
							{
								OFFSET -0.233664 0.021966 -0.134813
								CHANNELS 3 Xrotation Yrotation Zrotation
								JOINT hand_R
								{
									OFFSET -0.202817 -0.038212 -0.103702
									CHANNELS 3 Xrotation Yrotation Zrotation
									JOINT thumb01_R
									{
										OFFSET -0.008269 -0.017364 -0.009129
										CHANNELS 6 Xposition Yposition Zposition Xrotation Yrotation Zrotation
										JOINT thumb02_R
										{
											OFFSET -0.007103 -0.025549 -0.027526
											CHANNELS 3 Xrotation Yrotation Zrotation
											JOINT thumb03_R
											{
												OFFSET -0.011035 -0.026258 -0.014218
												CHANNELS 3 Xrotation Yrotation Zrotation
												End Site
												{
													OFFSET -0.008927 -0.014147 -0.017737
												}
											}
										}
									}
									JOINT index00_R
									{
										OFFSET -0.015790 -0.019369 -0.010869
										CHANNELS 6 Xposition Yposition Zposition Xrotation Yrotation Zrotation
										JOINT index01_R
										{
											OFFSET -0.047864 -0.007217 -0.023292
											CHANNELS 3 Xrotation Yrotation Zrotation
											JOINT index02_R
											{
												OFFSET -0.026189 -0.000355 -0.020650
												CHANNELS 3 Xrotation Yrotation Zrotation
												JOINT index03_R
												{
													OFFSET -0.017813 0.001193 -0.013583
													CHANNELS 3 Xrotation Yrotation Zrotation
													End Site
													{
														OFFSET -0.013377 0.001373 -0.016250
													}
												}
											}
										}
									}
									JOINT middle00_R
									{
										OFFSET -0.016276 -0.006169 -0.012863
										CHANNELS 6 Xposition Yposition Zposition Xrotation Yrotation Zrotation
										JOINT middle01_R
										{
											OFFSET -0.049067 -0.003947 -0.017410
											CHANNELS 3 Xrotation Yrotation Zrotation
											JOINT middle02_R
											{
												OFFSET -0.029087 0.000312 -0.026941
												CHANNELS 3 Xrotation Yrotation Zrotation
												JOINT middle03_R
												{
													OFFSET -0.019190 0.000267 -0.015543
													CHANNELS 3 Xrotation Yrotation Zrotation
													End Site
													{
														OFFSET -0.014683 0.000017 -0.017510
													}
												}
											}
										}
									}
									JOINT ring00_R
									{
										OFFSET -0.017106 0.003470 -0.011997
										CHANNELS 6 Xposition Yposition Zposition Xrotation Yrotation Zrotation
										JOINT ring01_R
										{
											OFFSET -0.044984 0.002116 -0.016733
											CHANNELS 3 Xrotation Yrotation Zrotation
											JOINT ring02_R
											{
												OFFSET -0.028856 0.000400 -0.026983
												CHANNELS 3 Xrotation Yrotation Zrotation
												JOINT ring03_R
												{
													OFFSET -0.017620 0.000363 -0.013833
													CHANNELS 3 Xrotation Yrotation Zrotation
													End Site
													{
														OFFSET -0.015507 -0.000807 -0.015547
													}
												}
											}
										}
									}
									JOINT pinky00_R
									{
										OFFSET -0.014366 0.020048 -0.015014
										CHANNELS 6 Xposition Yposition Zposition Xrotation Yrotation Zrotation
										JOINT pinky01_R
										{
											OFFSET -0.041296 0.001442 -0.016227
											CHANNELS 3 Xrotation Yrotation Zrotation
											JOINT pinky02_R
											{
												OFFSET -0.024951 -0.000301 -0.020450
												CHANNELS 3 Xrotation Yrotation Zrotation
												JOINT pinky03_R
												{
													OFFSET -0.013007 -0.001157 -0.010280
													CHANNELS 3 Xrotation Yrotation Zrotation
													End Site
													{
														OFFSET -0.009963 -0.001160 -0.011403
													}
												}
											}
										}
									}
								}
								JOINT lowerarm_twist_R
								{
									OFFSET 0.000000 0.000000 0.000000
									CHANNELS 6 Xposition Yposition Zposition Xrotation Yrotation Zrotation
									End Site
									{
										OFFSET -0.113147 -0.023106 -0.058600
									}
								}
							}
							JOINT upperarm_twist_R
							{
								OFFSET 0.000000 0.000000 0.000000
								CHANNELS 6 Xposition Yposition Zposition Xrotation Yrotation Zrotation
								End Site
								{
									OFFSET -0.131225 0.003005 -0.082365
								}
							}
						}
					}
					JOINT neck
					{
						OFFSET -0.000000 -0.002726 0.194733
						CHANNELS 6 Xposition Yposition Zposition Xrotation Yrotation Zrotation
						JOINT head
						{
							OFFSET 0.000000 -0.047407 0.104388
							CHANNELS 3 Xrotation Yrotation Zrotation
							End Site
							{
								OFFSET -0.000000 -0.000839 0.155358
							}
						}
					}
					JOINT breast_L
					{
						OFFSET 0.075423 -0.033073 0.045626
						CHANNELS 6 Xposition Yposition Zposition Xrotation Yrotation Zrotation
						End Site
						{
							OFFSET 0.027052 -0.131754 -0.030994
						}
					}
					JOINT breast_R
					{
						OFFSET -0.075423 -0.033073 0.045626
						CHANNELS 6 Xposition Yposition Zposition Xrotation Yrotation Zrotation
						End Site
						{
							OFFSET -0.027052 -0.131754 -0.030994
						}
					}
				}
			}
		}
	}
}
MOTION
Frames: 4
Frame Time: 0.041667
0.000000 0.000642 0.045086 0.000000 0.000000 0.000000 0.927533 -1.136109 1.003055 0.000186 -0.000006 -0.000003 -0.108457 -0.044119 -0.114619 7.376806 -6.657132 -0.211938 -3.512400 -3.438008 0.050844 -17.885120 -9.709651 -2.153322 -0.009320 -0.126012 -0.069821 14.292944 -1.405663 5.202640 0.000000 -0.000000 -0.000000 0.000000 -0.000001 -0.000000 0.000000 -0.000000 0.000000 0.000003 0.000003 0.000000 0.116390 -0.044120 -0.114620 7.356110 4.662847 0.326020 -3.513336 3.437517 -0.044104 -18.546520 11.220241 3.584550 14.701185 1.537653 -5.455423 -0.000000 0.000000 -0.000000 0.000000 -0.000001 0.000000 0.000000 0.000000 -0.000000 0.000001 -0.000001 0.000000 -39.941765 -3.705681 -0.103268 -0.000004 -0.000000 -0.000000 -0.000001 0.000000 0.000000 0.031960 -0.002455 0.159581 0.000001 -0.000008 -0.000002 0.106614 -0.013377 -0.022582 37.529485 -19.945334 -6.646890 6.255557 3.587636 12.362537 -2.466926 -5.718999 -4.549970 0.008269 -0.017363 -0.009129 0.000927 -0.000067 -0.000377 -0.000303 -0.000119 0.000231 -25.239176 -6.460825 8.064118 0.015791 -0.019369 -0.010870 -0.000006 -0.000018 0.000002 -0.000179 0.014396 -0.000342 -4.453957 -4.194968 -6.536417 -0.104627 -13.138103 -0.978905 0.016274 -0.006169 -0.012863 0.000003 0.000015 -0.000000 -0.000648 0.015499 -0.000431 -0.000113 0.033345 0.000383 0.000283 0.071439 0.000419 0.017107 0.003471 -0.011997 -0.000006 -0.000016 -0.000001 -0.000006 0.017523 0.000235 -0.000666 0.031911 0.000153 0.000755 0.091893 -0.004034 0.014367 0.020048 -0.015014 -0.000001 0.000002 0.000000 0.000248 0.017955 -0.000007 0.001923 0.039135 -0.002048 0.005971 0.104262 -0.005367 0.000000 -0.000000 -0.000000 -0.000019 0.000673 0.000309 0.000001 0.000000 0.000000 -0.000006 0.001367 -0.000066 -0.031960 -0.002455 0.159580 -0.000001 0.000013 -0.000006 -0.106614 -0.013377 -0.022582 38.923991 23.860629 2.197406 6.279338 -3.589075 -12.349089 -2.505900 5.711802 4.528592 -0.008269 -0.017364 -0.009130 0.001372 -0.000752 0.000194 -0.000074 -0.000410 0.000090 -24.650583 6.846839 -7.356085 -0.015791 -0.019370 -0.010870 -0.000004 0.000015 0.000001 -0.000144 -0.013005 0.000295 -4.481147 4.203957 6.518222 -0.154073 13.175116 0.929257 -0.016274 -0.006169 -0.012862 -0.000000 0.000008 -0.000001 -0.000567 -0.013608 0.000378 -0.001184 -0.011795 0.000789 0.000542 -0.020171 -0.000669 -0.017107 0.003471 -0.011997 -0.000000 0.000003 -0.000000 -0.000716 -0.016767 0.000435 -0.000647 -0.015893 0.000171 -0.000128 -0.042072 0.002319 -0.014367 0.020048 -0.015014 0.000001 -0.000000 0.000000 -0.000991 -0.017892 0.001032 0.000526 -0.022095 0.001600 0.000327 -0.056883 0.006361 -0.000000 0.000000 -0.000000 0.000001 -0.000004 0.000006 0.000001 -0.000000 0.000001 -0.000001 -0.000072 -0.000001 -0.000000 -0.002726 0.194733 20.551542 5.649404 -0.168348 10.997259 0.065134 0.225614 0.075423 -0.033073 0.045626 0.000426 0.000108 -0.000170 -0.075423 -0.033073 0.045627 0.000453 -0.000111 0.000180 
0.000000 0.000642 0.045086 0.000000 0.000000 0.000000 0.927533 -1.136109 1.003055 0.000186 -0.000006 -0.000003 -0.108457 -0.044119 -0.114619 7.376806 -6.657132 -0.211938 -3.512400 -3.438008 0.050844 -17.885120 -9.709651 -2.153322 -0.009320 -0.126012 -0.069821 14.292944 -1.405663 5.202640 0.000000 -0.000000 -0.000000 0.000000 -0.000001 -0.000000 0.000000 -0.000000 0.000000 0.000003 0.000003 0.000000 0.116390 -0.044120 -0.114620 7.356110 4.662847 0.326020 -3.513336 3.437517 -0.044104 -18.546520 11.220241 3.584550 14.701185 1.537653 -5.455423 -0.000000 0.000000 -0.000000 0.000000 -0.000001 0.000000 0.000000 0.000000 -0.000000 0.000001 -0.000001 0.000000 -39.941765 -3.705681 -0.103268 -0.000004 -0.000000 -0.000000 -0.000001 0.000000 0.000000 0.031960 -0.002455 0.159581 0.000001 -0.000008 -0.000002 0.106614 -0.013377 -0.022582 37.529485 -19.945334 -6.646890 6.255557 3.587636 12.362537 -2.466926 -5.718999 -4.549970 0.008269 -0.017363 -0.009129 0.000927 -0.000067 -0.000377 -0.000303 -0.000119 0.000231 -25.239176 -6.460825 8.064118 0.015791 -0.019369 -0.010870 -0.000006 -0.000018 0.000002 -0.000179 0.014396 -0.000342 -4.453957 -4.194968 -6.536417 -0.104627 -13.138103 -0.978905 0.016274 -0.006169 -0.012863 0.000003 0.000015 -0.000000 -0.000648 0.015499 -0.000431 -0.000113 0.033345 0.000383 0.000283 0.071439 0.000419 0.017107 0.003471 -0.011997 -0.000006 -0.000016 -0.000001 -0.000006 0.017523 0.000235 -0.000666 0.031911 0.000153 0.000755 0.091893 -0.004034 0.014367 0.020048 -0.015014 -0.000001 0.000002 0.000000 0.000248 0.017955 -0.000007 0.001923 0.039135 -0.002048 0.005971 0.104262 -0.005367 0.000000 -0.000000 -0.000000 -0.000019 0.000673 0.000309 0.000001 0.000000 0.000000 -0.000006 0.001367 -0.000066 -0.031960 -0.002455 0.159580 -0.000001 0.000013 -0.000006 -0.106614 -0.013377 -0.022582 38.923991 23.860629 2.197406 6.279338 -3.589075 -12.349089 -2.505900 5.711802 4.528592 -0.008269 -0.017364 -0.009130 0.001372 -0.000752 0.000194 -0.000074 -0.000410 0.000090 -24.650583 6.846839 -7.356085 -0.015791 -0.019370 -0.010870 -0.000004 0.000015 0.000001 -0.000144 -0.013005 0.000295 -4.481147 4.203957 6.518222 -0.154073 13.175116 0.929257 -0.016274 -0.006169 -0.012862 -0.000000 0.000008 -0.000001 -0.000567 -0.013608 0.000378 -0.001184 -0.011795 0.000789 0.000542 -0.020171 -0.000669 -0.017107 0.003471 -0.011997 -0.000000 0.000003 -0.000000 -0.000716 -0.016767 0.000435 -0.000647 -0.015893 0.000171 -0.000128 -0.042072 0.002319 -0.014367 0.020048 -0.015014 0.000001 -0.000000 0.000000 -0.000991 -0.017892 0.001032 0.000526 -0.022095 0.001600 0.000327 -0.056883 0.006361 -0.000000 0.000000 -0.000000 0.000001 -0.000004 0.000006 0.000001 -0.000000 0.000001 -0.000001 -0.000072 -0.000001 -0.000000 -0.002726 0.194733 20.551542 5.649404 -0.168348 10.997259 0.065134 0.225614 0.075423 -0.033073 0.045626 0.000426 0.000108 -0.000170 -0.075423 -0.033073 0.045627 0.000453 -0.000111 0.000180 
0.000000 0.000642 0.045086 0.000000 0.000000 0.000000 0.928398 -1.136133 1.002571 10.412666 0.861745 -96.574770 -0.108457 -0.044120 -0.114619 -0.566120 -10.318344 3.637228 26.697801 -3.625228 -2.421758 -36.454605 -5.435477 -7.959084 -0.009320 -0.126011 -0.069821 17.149591 -1.376860 4.268987 -0.000000 0.000000 0.000000 -0.000002 -0.000002 0.000000 -0.000000 -0.000000 0.000000 0.000002 0.000003 -0.000000 0.116389 -0.044120 -0.114620 0.396424 -1.033633 2.354299 25.762710 3.864482 2.286887 -38.521796 10.646376 3.693284 22.844669 1.543025 -2.490081 0.000000 0.000000 -0.000000 0.000001 -0.000000 0.000001 0.000000 -0.000000 -0.000000 0.000000 -0.000001 -0.000000 -35.909580 -5.722940 1.204195 -0.431372 -1.694444 3.103308 -2.687553 -1.178473 1.538409 0.031960 -0.002455 0.159581 -0.000001 -0.000009 -0.000002 0.106614 -0.013377 -0.022582 71.331265 51.936946 -35.330492 -6.166924 -8.695691 -9.089623 -2.274435 -5.752811 -4.655708 0.008269 -0.017363 -0.009129 0.000924 -0.000075 -0.000375 -0.000304 -0.000121 0.000231 -5.586914 -2.535466 24.300729 0.015791 -0.019370 -0.010870 -0.000005 -0.000022 0.000000 -0.000180 0.014394 -0.000342 -12.436898 -16.793193 -14.732513 -0.083572 -6.034555 -0.426105 0.016274 -0.006169 -0.012862 0.000006 0.000009 -0.000000 -0.000647 0.015499 -0.000428 -0.000115 0.033340 0.000384 0.000283 0.071439 0.000419 0.017107 0.003471 -0.011996 -0.000005 -0.000021 -0.000001 -0.000004 0.017515 0.000234 -0.000664 0.031913 0.000154 0.000758 0.091894 -0.004033 0.014367 0.020048 -0.015014 -0.000002 -0.000003 -0.000002 0.000248 0.017952 -0.000004 0.001923 0.039140 -0.002048 0.005973 0.104261 -0.005368 0.000000 -0.000000 -0.000001 -0.000020 0.000677 0.000310 0.000001 0.000000 0.000000 -0.000007 0.001364 -0.000066 -0.031959 -0.002455 0.159580 0.000001 0.000014 -0.000004 -0.106614 -0.013377 -0.022582 56.801332 -60.245226 21.879698 -3.888176 6.991804 5.554963 -10.396460 4.637313 0.130684 -0.008269 -0.017364 -0.009129 0.001368 -0.000750 0.000194 -0.000076 -0.000410 0.000097 13.483400 4.529447 -49.990496 -0.015791 -0.019369 -0.010870 -0.000006 0.000015 -0.000001 -0.000144 -0.013008 0.000295 13.304063 20.340819 -12.520082 -0.103762 6.073609 0.345595 -0.016274 -0.006169 -0.012862 0.000000 0.000003 -0.000003 -0.000568 -0.013604 0.000379 -0.001186 -0.011800 0.000789 0.000541 -0.020176 -0.000670 -0.017107 0.003471 -0.011996 -0.000003 0.000002 -0.000003 -0.000715 -0.016763 0.000437 -0.000646 -0.015893 0.000170 -0.000130 -0.042076 0.002317 -0.014367 0.020048 -0.015014 0.000000 -0.000002 -0.000000 -0.000989 -0.017894 0.001030 0.000527 -0.022090 0.001602 0.000329 -0.056886 0.006363 -0.000000 -0.000000 -0.000000 0.000001 0.000003 0.000004 0.000001 -0.000000 0.000000 -0.000002 -0.000077 -0.000002 0.000000 -0.002726 0.194733 18.170479 4.531635 -6.499430 4.898105 -1.492022 -1.170143 0.075424 -0.033073 0.045626 0.000420 0.000108 -0.000168 -0.075423 -0.033073 0.045626 0.000441 -0.000112 0.000181 
0.000000 0.000642 0.045086 0.000000 0.000000 0.000000 0.929669 -1.137311 1.003493 10.584492 0.812203 -96.624787 -0.108456 -0.044119 -0.114619 -0.746127 -10.259794 2.731333 26.524792 -3.618408 -2.408751 -36.086683 -6.317970 -6.764732 -0.009320 -0.126011 -0.069821 19.315910 -1.386079 3.560793 -0.000000 -0.000000 0.000000 -0.000001 -0.000001 0.000000 -0.000000 -0.000000 0.000000 0.000003 0.000004 -0.000000 0.116390 -0.044120 -0.114620 0.054177 -1.142066 2.196157 26.169127 3.880553 2.316523 -38.424312 10.591940 3.773199 23.652800 1.566529 -2.196399 0.000000 0.000000 -0.000000 -0.000002 0.000001 -0.000001 -0.000000 -0.000000 -0.000000 0.000000 -0.000001 -0.000001 -35.728084 -5.997195 0.989685 -0.455465 -1.605951 3.124292 -2.803590 -0.882650 1.515320 0.031960 -0.002455 0.159581 0.000005 -0.000009 -0.000002 0.106614 -0.013378 -0.022582 71.671245 51.765877 -35.549017 -6.283654 -8.768997 -9.263107 -2.725090 -5.674178 -4.407993 0.008269 -0.017364 -0.009129 0.000922 -0.000073 -0.000376 -0.000304 -0.000120 0.000229 -5.617856 -2.631602 24.330877 0.015791 -0.019370 -0.010870 -0.000005 -0.000018 -0.000000 -0.000180 0.014389 -0.000340 -12.452569 -16.900654 -14.735780 -0.083574 -6.034555 -0.426099 0.016274 -0.006169 -0.012862 0.000003 0.000012 -0.000000 -0.000648 0.015501 -0.000430 -0.000114 0.033336 0.000383 0.000282 0.071435 0.000420 0.017107 0.003471 -0.011996 -0.000005 -0.000014 -0.000002 -0.000006 0.017523 0.000235 -0.000666 0.031920 0.000156 0.000751 0.091896 -0.004039 0.014367 0.020048 -0.015014 -0.000003 0.000005 -0.000002 0.000250 0.017955 -0.000006 0.001925 0.039135 -0.002046 0.005972 0.104255 -0.005366 0.000000 -0.000000 -0.000001 -0.000021 0.000679 0.000308 0.000001 0.000001 0.000000 -0.000007 0.001369 -0.000065 -0.031959 -0.002455 0.159580 -0.000001 0.000013 -0.000005 -0.106614 -0.013377 -0.022582 57.272786 -60.164732 22.528595 -3.938431 7.029369 5.635326 -10.205663 4.656061 0.238132 -0.008269 -0.017364 -0.009129 0.001372 -0.000750 0.000194 -0.000077 -0.000413 0.000096 13.409717 3.626746 -49.778726 -0.015791 -0.019369 -0.010870 -0.000006 0.000019 -0.000000 -0.000147 -0.013005 0.000296 13.045779 19.413423 -12.485141 -0.103762 6.073607 0.345595 -0.016274 -0.006169 -0.012862 0.000000 0.000006 -0.000003 -0.000567 -0.013609 0.000377 -0.001185 -0.011798 0.000790 0.000543 -0.020172 -0.000668 -0.017107 0.003471 -0.011996 -0.000001 0.000005 0.000001 -0.000716 -0.016773 0.000435 -0.000647 -0.015895 0.000170 -0.000128 -0.042076 0.002317 -0.014367 0.020048 -0.015014 0.000001 -0.000000 0.000001 -0.000990 -0.017892 0.001031 0.000527 -0.022092 0.001601 0.000329 -0.056881 0.006364 -0.000000 -0.000000 -0.000000 0.000003 0.000002 0.000007 0.000001 -0.000000 0.000001 -0.000003 -0.000074 -0.000001 0.000000 -0.002727 0.194733 18.267549 4.440541 -6.342455 5.050359 -1.496303 -1.205247 0.075424 -0.033073 0.045626 0.000422 0.000107 -0.000169 -0.075423 -0.033073 0.045627 0.000447 -0.000112 0.000181 
